<svg width="582" height="708" viewBox="0 0 582 708" fill="none" xmlns="http://www.w3.org/2000/svg">
<path d="M27.6 683V611.1H86.5C88.9 611.1 91.1 611.7 93.1 612.9C95.1 614.1 96.6667 615.7 97.8 617.7C99 619.633 99.6 621.767 99.6 624.1V644.3C99.6 646.7 99 648.9 97.8 650.9C96.6667 652.833 95.1 654.4 93.1 655.6C91.1 656.733 88.9 657.3 86.5 657.3L38.4 657.4V683H27.6ZM40.9 646.4H86.3C86.9667 646.4 87.5333 646.167 88 645.7C88.4667 645.233 88.7 644.667 88.7 644V624.4C88.7 623.733 88.4667 623.167 88 622.7C87.5333 622.167 86.9667 621.9 86.3 621.9H40.9C40.2333 621.9 39.6333 622.167 39.1 622.7C38.6333 623.167 38.4 623.733 38.4 624.4V644C38.4 644.667 38.6333 645.233 39.1 645.7C39.6333 646.167 40.2333 646.4 40.9 646.4ZM107.488 683V624C107.488 621.6 108.054 619.433 109.188 617.5C110.388 615.5 111.954 613.933 113.888 612.8C115.888 611.6 118.088 611 120.488 611H166.388C168.788 611 170.988 611.6 172.988 612.8C174.988 613.933 176.554 615.5 177.688 617.5C178.888 619.433 179.488 621.6 179.488 624V683H168.588V657.8H118.288V683H107.488ZM118.288 647H168.588V624.3C168.588 623.633 168.354 623.067 167.888 622.6C167.421 622.067 166.854 621.8 166.188 621.8H120.788C120.121 621.8 119.521 622.067 118.988 622.6C118.521 623.067 118.288 623.633 118.288 624.3V647ZM218.619 683V656L185.419 611H198.119L224.019 643.7L249.819 611H262.619L229.419 656V683H218.619ZM270.185 658.8V648H310.185V658.8H270.185ZM321.545 683V611.1H380.445C382.845 611.1 385.045 611.7 387.045 612.9C389.045 614.1 390.612 615.7 391.745 617.7C392.945 619.633 393.545 621.767 393.545 624.1V644.3C393.545 646.7 392.945 648.9 391.745 650.9C390.612 652.833 389.045 654.4 387.045 655.6C385.045 656.733 382.845 657.3 380.445 657.3L332.345 657.4V683H321.545ZM334.845 646.4H380.245C380.912 646.4 381.479 646.167 381.945 645.7C382.412 645.233 382.645 644.667 382.645 644V624.4C382.645 623.733 382.412 623.167 381.945 622.7C381.479 622.167 380.912 621.9 380.245 621.9H334.845C334.179 621.9 333.579 622.167 333.045 622.7C332.579 623.167 332.345 623.733 332.345 624.4V644C332.345 644.667 332.579 645.233 333.045 645.7C333.579 646.167 334.179 646.4 334.845 646.4ZM400.847 683V611H466.847V621.8H411.747V641.6H456.047V652.4H411.747V672.2H466.847V683H400.847ZM536.209 683L513.709 656.1H527.809L548.809 681V683H536.209ZM477.209 683V611.1H536.109C538.509 611.1 540.709 611.7 542.709 612.9C544.709 614.1 546.276 615.7 547.409 617.7C548.609 619.633 549.209 621.767 549.209 624.1V644.3C549.209 646.7 548.609 648.9 547.409 650.9C546.276 652.833 544.709 654.4 542.709 655.6C540.709 656.733 538.509 657.3 536.109 657.3L488.009 657.4V683H477.209ZM490.509 646.4H535.909C536.576 646.4 537.143 646.167 537.609 645.7C538.076 645.233 538.309 644.667 538.309 644V624.4C538.309 623.733 538.076 623.167 537.609 622.7C537.143 622.167 536.576 621.9 535.909 621.9H490.509C489.843 621.9 489.243 622.167 488.709 622.7C488.243 623.167 488.009 623.733 488.009 624.4V644C488.009 644.667 488.243 645.233 488.709 645.7C489.243 646.167 489.843 646.4 490.509 646.4Z" fill="url(#paint0_linear_620_16)"/>
<g filter="url(#filter0_i_620_16)">
<path d="M228.782 161.563C208.772 149.96 201.916 124.259 213.469 104.161C225.022 84.062 250.609 77.1757 270.619 88.7797L439.341 186.623C439.339 186.625 439.336 186.628 439.334 186.631C426.997 179.988 411.625 179.714 398.611 187.261L260.16 106.976C250.155 101.174 237.361 104.617 231.585 114.666C225.809 124.716 229.237 137.566 239.242 143.368L356.772 211.524L335.854 223.655L228.782 161.563Z" fill="url(#paint1_linear_620_16)"/>
<path d="M254.93 116.074L388.149 193.328L367.231 205.459L244.471 134.27C239.469 131.369 237.755 124.944 240.643 119.919C243.531 114.894 249.928 113.173 254.93 116.074Z" fill="url(#paint2_linear_620_16)"/>
<path d="M207.857 452.678V125.165C208.134 139.397 215.607 153.139 228.775 160.775V452.678C228.775 464.282 238.141 473.689 249.694 473.689C261.247 473.689 270.612 464.282 270.612 452.678V185.037L291.53 197.167V452.678C291.53 475.886 272.799 494.7 249.694 494.7C226.588 494.7 207.857 475.886 207.857 452.678Z" fill="url(#paint3_linear_620_16)"/>
<path d="M239.235 166.841V452.678C239.235 458.48 243.917 463.184 249.694 463.184C255.47 463.184 260.153 458.48 260.153 452.678V178.971L239.235 166.841Z" fill="url(#paint4_linear_620_16)"/>
<path d="M291.53 346.45L440.518 260.052C460.528 248.448 467.384 222.748 455.831 202.649C444.278 182.55 418.691 175.664 398.681 187.268L291.53 249.405V273.666L409.14 205.464C419.145 199.662 431.939 203.105 437.715 213.155C443.491 223.204 440.063 236.054 430.058 241.856L291.53 322.189V346.45Z" fill="url(#paint5_linear_620_16)"/>
<path d="M291.53 310.058L424.829 232.758C429.831 229.857 431.545 223.432 428.657 218.407C425.769 213.383 419.372 211.661 414.37 214.562L291.53 285.797V310.058Z" fill="url(#paint6_linear_620_16)"/>
<path fill-rule="evenodd" clip-rule="evenodd" d="M291 557.057C437.939 557.057 557.057 437.939 557.057 291C557.057 144.061 437.939 24.9429 291 24.9429C144.061 24.9429 24.9429 144.061 24.9429 291C24.9429 437.939 144.061 557.057 291 557.057ZM291 582C451.715 582 582 451.715 582 291C582 130.285 451.715 0 291 0C130.285 0 0 130.285 0 291C0 451.715 130.285 582 291 582Z" fill="url(#paint7_linear_620_16)"/>
</g>
<defs>
<filter id="filter0_i_620_16" x="0" y="0" width="582" height="586" filterUnits="userSpaceOnUse" color-interpolation-filters="sRGB">
<feFlood flood-opacity="0" result="BackgroundImageFix"/>
<feBlend mode="normal" in="SourceGraphic" in2="BackgroundImageFix" result="shape"/>
<feColorMatrix in="SourceAlpha" type="matrix" values="0 0 0 0 0 0 0 0 0 0 0 0 0 0 0 0 0 0 127 0" result="hardAlpha"/>
<feOffset dy="4"/>
<feGaussianBlur stdDeviation="2"/>
<feComposite in2="hardAlpha" operator="arithmetic" k2="-1" k3="1"/>
<feColorMatrix type="matrix" values="0 0 0 0 0 0 0 0 0 0 0 0 0 0 0 0 0 0 0.25 0"/>
<feBlend mode="normal" in2="shape" result="effect1_innerShadow_620_16"/>
</filter>
<linearGradient id="paint0_linear_620_16" x1="38.9031" y1="645" x2="553.715" y2="636.629" gradientUnits="userSpaceOnUse">
<stop stop-color="#4B21E1"/>
<stop offset="1" stop-color="#45BC92"/>
</linearGradient>
<linearGradient id="paint1_linear_620_16" x1="59.1672" y1="163.176" x2="524.68" y2="326.296" gradientUnits="userSpaceOnUse">
<stop stop-color="#45BC92"/>
<stop offset="1" stop-color="#4B21E1"/>
</linearGradient>
<linearGradient id="paint2_linear_620_16" x1="59.1672" y1="163.176" x2="524.68" y2="326.296" gradientUnits="userSpaceOnUse">
<stop stop-color="#45BC92"/>
<stop offset="1" stop-color="#4B21E1"/>
</linearGradient>
<linearGradient id="paint3_linear_620_16" x1="291" y1="0" x2="291" y2="582" gradientUnits="userSpaceOnUse">
<stop stop-color="#4B21E1"/>
<stop offset="1" stop-color="#45BC92"/>
</linearGradient>
<linearGradient id="paint4_linear_620_16" x1="291" y1="0" x2="291" y2="582" gradientUnits="userSpaceOnUse">
<stop stop-color="#4B21E1"/>
<stop offset="1" stop-color="#45BC92"/>
</linearGradient>
<linearGradient id="paint5_linear_620_16" x1="516.1" y1="185.702" x2="268.112" y2="422.011" gradientUnits="userSpaceOnUse">
<stop stop-color="#45BC92"/>
<stop offset="1" stop-color="#4B21E1"/>
</linearGradient>
<linearGradient id="paint6_linear_620_16" x1="516.1" y1="185.702" x2="268.112" y2="422.011" gradientUnits="userSpaceOnUse">
<stop stop-color="#45BC92"/>
<stop offset="1" stop-color="#4B21E1"/>
</linearGradient>
<linearGradient id="paint7_linear_620_16" x1="291" y1="0" x2="291" y2="582" gradientUnits="userSpaceOnUse">
<stop stop-color="#033F2A"/>
<stop offset="0.503571" stop-color="#5CD1A8"/>
<stop offset="1" stop-color="#0F5C41"/>
</linearGradient>
</defs>
</svg>
