<svg width="523" height="72" viewBox="0 0 523 72" fill="none" xmlns="http://www.w3.org/2000/svg">
<path d="M0.6 72V0.0999959H59.5C61.9 0.0999959 64.1 0.699996 66.1 1.9C68.1 3.1 69.6667 4.7 70.8 6.69999C72 8.63333 72.6 10.7667 72.6 13.1V33.3C72.6 35.7 72 37.9 70.8 39.9C69.6667 41.8333 68.1 43.4 66.1 44.6C64.1 45.7333 61.9 46.3 59.5 46.3L11.4 46.4V72H0.6ZM13.9 35.4H59.3C59.9667 35.4 60.5333 35.1667 61 34.7C61.4667 34.2333 61.7 33.6667 61.7 33V13.4C61.7 12.7333 61.4667 12.1667 61 11.7C60.5333 11.1667 59.9667 10.9 59.3 10.9H13.9C13.2333 10.9 12.6333 11.1667 12.1 11.7C11.6333 12.1667 11.4 12.7333 11.4 13.4V33C11.4 33.6667 11.6333 34.2333 12.1 34.7C12.6333 35.1667 13.2333 35.4 13.9 35.4ZM80.4875 72V13C80.4875 10.6 81.0542 8.43333 82.1875 6.5C83.3875 4.49999 84.9542 2.93333 86.8875 1.8C88.8875 0.599997 91.0875 -2.86102e-06 93.4875 -2.86102e-06H139.388C141.788 -2.86102e-06 143.988 0.599997 145.988 1.8C147.988 2.93333 149.554 4.49999 150.688 6.5C151.888 8.43333 152.488 10.6 152.488 13V72H141.588V46.8H91.2875V72H80.4875ZM91.2875 36H141.588V13.3C141.588 12.6333 141.354 12.0667 140.888 11.6C140.421 11.0667 139.854 10.8 139.188 10.8H93.7875C93.1208 10.8 92.5208 11.0667 91.9875 11.6C91.5208 12.0667 91.2875 12.6333 91.2875 13.3V36ZM191.619 72V45L158.419 -2.86102e-06H171.119L197.019 32.7L222.819 -2.86102e-06H235.619L202.419 45V72H191.619ZM243.185 47.8V37H283.185V47.8H243.185ZM294.545 72V0.0999959H353.445C355.845 0.0999959 358.045 0.699996 360.045 1.9C362.045 3.1 363.612 4.7 364.745 6.69999C365.945 8.63333 366.545 10.7667 366.545 13.1V33.3C366.545 35.7 365.945 37.9 364.745 39.9C363.612 41.8333 362.045 43.4 360.045 44.6C358.045 45.7333 355.845 46.3 353.445 46.3L305.345 46.4V72H294.545ZM307.845 35.4H353.245C353.912 35.4 354.479 35.1667 354.945 34.7C355.412 34.2333 355.645 33.6667 355.645 33V13.4C355.645 12.7333 355.412 12.1667 354.945 11.7C354.479 11.1667 353.912 10.9 353.245 10.9H307.845C307.179 10.9 306.579 11.1667 306.045 11.7C305.579 12.1667 305.345 12.7333 305.345 13.4V33C305.345 33.6667 305.579 34.2333 306.045 34.7C306.579 35.1667 307.179 35.4 307.845 35.4ZM373.847 72V-2.86102e-06H439.847V10.8H384.747V30.6H429.047V41.4H384.747V61.2H439.847V72H373.847ZM509.209 72L486.709 45.1H500.809L521.809 70V72H509.209ZM450.209 72V0.0999959H509.109C511.509 0.0999959 513.709 0.699996 515.709 1.9C517.709 3.1 519.276 4.7 520.409 6.69999C521.609 8.63333 522.209 10.7667 522.209 13.1V33.3C522.209 35.7 521.609 37.9 520.409 39.9C519.276 41.8333 517.709 43.4 515.709 44.6C513.709 45.7333 511.509 46.3 509.109 46.3L461.009 46.4V72H450.209ZM463.509 35.4H508.909C509.576 35.4 510.143 35.1667 510.609 34.7C511.076 34.2333 511.309 33.6667 511.309 33V13.4C511.309 12.7333 511.076 12.1667 510.609 11.7C510.143 11.1667 509.576 10.9 508.909 10.9H463.509C462.843 10.9 462.243 11.1667 461.709 11.7C461.243 12.1667 461.009 12.7333 461.009 13.4V33C461.009 33.6667 461.243 34.2333 461.709 34.7C462.243 35.1667 462.843 35.4 463.509 35.4Z" fill="url(#paint0_linear_620_21)"/>
<defs>
<linearGradient id="paint0_linear_620_21" x1="11.9031" y1="34" x2="526.715" y2="25.6287" gradientUnits="userSpaceOnUse">
<stop stop-color="#4B21E1"/>
<stop offset="1" stop-color="#45BC92"/>
</linearGradient>
</defs>
</svg>
