<svg xmlns="http://www.w3.org/2000/svg" version="1.1" xmlns:xlink="http://www.w3.org/1999/xlink" xmlns:svgjs="http://svgjs.dev/svgjs" width="1000" height="565" viewBox="0 0 1000 565"><g transform="matrix(1,0,0,1,-0.6060606060606233,-0.18531215170446558)"><svg viewBox="0 0 396 224" data-background-color="#18181b" preserveAspectRatio="xMidYMid meet" height="565" width="1000" xmlns="http://www.w3.org/2000/svg" xmlns:xlink="http://www.w3.org/1999/xlink"><g id="tight-bounds" transform="matrix(1,0,0,1,0.2400000000000091,0.07346888846336697)"><svg viewBox="0 0 395.52 223.85306222307327" height="223.85306222307327" width="395.52"><g><svg viewBox="0 0 397.4975999999999 224.9723275341886" height="223.85306222307327" width="395.52"><g><rect width="397.4975999999999" height="6.8906052569379135" x="0" y="123.63490131411527" fill="#ffffff" opacity="1" stroke-width="0" stroke="transparent" fill-opacity="1" class="rect-o-0" data-fill-palette-color="primary" rx="1%" id="o-0" data-palette-color="#6b7280"></rect></g><g transform="matrix(1,0,0,1,0.9887999999999693,148.5637402279587)"><svg viewBox="0 0 395.52 76.4085873062299" height="76.4085873062299" width="395.52"><g><svg viewBox="0 0 395.52 76.4085873062299" height="76.4085873062299" width="395.52"><g><svg viewBox="0 0 395.52 76.4085873062299" height="76.4085873062299" width="395.52"><g transform="matrix(1,0,0,1,0,0)"><svg width="395.52" viewBox="4.579999923706055 -33.38999938964844 172.8300018310547 33.38999938964844" height="76.4085873062299" data-palette-color="#6b7280"><path d="M4.58-33.27L13.2-33.27Q25.66-33.27 25.66-23.56L25.66-23.56Q25.66-18.53 22.21-15.8 18.76-13.07 12.36-13.07L12.36-13.07 8.44-13.07 8.44 0 4.58 0 4.58-33.27ZM12.77-29.9L8.44-29.9 8.44-16.41 11.93-16.41Q17.04-16.41 19.36-18.05L19.36-18.05Q21.66-19.72 21.66-23.22 21.66-26.72 19.49-28.31 17.32-29.9 12.77-29.9L12.77-29.9ZM39.03-24.37L35.11-14.05 45.85-14.05 41.98-24.37Q41.2-26.49 40.44-29.17L40.44-29.17Q39.99-27.1 39.03-24.37L39.03-24.37ZM42.14-33.39L55.2 0 51.21 0 47.07-10.57 33.74-10.57 29.65 0 25.73 0 38.88-33.39 42.14-33.39ZM67.39-12.89L67.39 0 63.47 0 63.47-12.71 52.4-33.27 56.62-33.27 65.44-16.63 74.31-33.27 78.48-33.27 67.39-12.89ZM92.54-16.73L92.54-13.3 81.39-13.3 81.39-16.73 92.54-16.73ZM100.02-33.27L108.64-33.27Q121.1-33.27 121.1-23.56L121.1-23.56Q121.1-18.53 117.65-15.8 114.2-13.07 107.8-13.07L107.8-13.07 103.88-13.07 103.88 0 100.02 0 100.02-33.27ZM108.21-29.9L103.88-29.9 103.88-16.41 107.37-16.41Q112.48-16.41 114.8-18.05L114.8-18.05Q117.1-19.72 117.1-23.22 117.1-26.72 114.93-28.31 112.76-29.9 108.21-29.9L108.21-29.9ZM131.94-3.46L146.6-3.46 146.6 0 128.07 0 128.07-33.27 146.6-33.27 146.6-29.83 131.94-29.83 131.94-19.11 145.72-19.11 145.72-15.7 131.94-15.7 131.94-3.46ZM162.88-29.88L157.85-29.88 157.85-17.16 163.15-17.16Q167.22-17.16 169.15-18.77 171.07-20.37 171.07-23.66 171.07-26.95 169.12-28.41 167.17-29.88 162.88-29.88L162.88-29.88ZM164.77-13.83L157.85-13.83 157.85 0 153.98 0 153.98-33.27 163.1-33.27Q169.2-33.27 172.13-30.93 175.06-28.59 175.06-23.86L175.06-23.86Q175.06-17.24 168.39-14.94L168.39-14.94 177.41 0 172.84 0 164.77-13.83Z" opacity="1" transform="matrix(1,0,0,1,0,0)" fill="#ffffff" class="undefined-text-0" data-fill-palette-color="primary" id="text-0"></path></svg></g></svg></g></svg></g></svg></g><g transform="matrix(1,0,0,1,145.83896137438506,0)"><svg viewBox="0 0 105.81967725122982 105.59666765720974" height="105.59666765720974" width="105.81967725122982"><g><svg xmlns="http://www.w3.org/2000/svg" xmlns:xlink="http://www.w3.org/1999/xlink" version="1.1" x="0" y="0" viewBox="2.5 2.5999999046325684 94.90000915527344 94.70001220703125" enable-background="new 0 0 100 100" xml:space="preserve" height="105.59666765720974" width="105.81967725122982" class="icon-icon-0" data-fill-palette-color="accent" id="icon-0"><path d="M14.6 48.2h32.7v-9.1c0-1.6 1.3-2.8 2.8-2.8 1.6 0 2.8 1.3 2.8 2.8v9.1h32.6c1.6 0 2.8 1.3 2.8 2.8v11.2c0 1.6-1.3 2.8-2.8 2.8s-2.8-1.3-2.8-2.8v-8.4H52.9v8.4c0 1.6-1.3 2.8-2.8 2.8-1.6 0-2.8-1.3-2.8-2.8v-8.4H17.4v8.4c0 1.6-1.3 2.8-2.8 2.8s-2.8-1.3-2.8-2.8V51C11.7 49.4 13 48.2 14.6 48.2zM3.4 90.7c-0.3 0.1-0.6 0.2-0.9 0.3 2.5 3.8 6.8 6.2 11.7 6.2 4.9 0 9.2-2.5 11.7-6.2-0.3-0.1-0.5-0.3-0.9-0.3-3.3-0.8-6.1-2.1-6.1-2.1-0.3-0.5-0.5-1.2-0.6-1.8 0.8-1 1.1-2.2 1.3-3.3 0.3 0.2 0.9 0.1 1.4-2 0.5-1.7 0.2-2.3-0.2-2.4h0c1.3-6.5-1.7-6.7-1.7-6.7s-0.5-0.9-1.7-1.6c-0.8-0.5-1.9-0.9-3.4-0.7-0.5 0-0.9 0.1-1.4 0.3l0 0c-0.5 0.2-1 0.5-1.5 0.8-0.6 0.4-1.1 0.8-1.5 1.3-0.7 0.8-1.4 1.7-1.7 3-0.3 1-0.3 2.2 0.1 3.3-0.5-0.1-1.2 0.3-0.6 2.4 0.4 1.6 0.9 2 1.2 2.1 0.2 1.1 0.6 2.5 1.4 3.6-0.1 0.5-0.2 1.1-0.5 1.6C9.6 88.5 6.7 89.9 3.4 90.7zM39.2 90.8c-0.3 0.1-0.6 0.2-0.9 0.3 2.5 3.8 6.8 6.2 11.7 6.2s9.2-2.5 11.7-6.2c-0.3-0.1-0.5-0.3-0.9-0.3-3.4-0.8-6.1-2.1-6.1-2.1-0.3-0.5-0.5-1.2-0.6-1.8 0.8-1 1.1-2.2 1.3-3.3 0.3 0.2 0.9 0.1 1.4-2 0.5-1.7 0.2-2.3-0.2-2.4h0c1.3-6.5-1.7-6.7-1.7-6.7s-0.5-0.9-1.7-1.6c-0.8-0.5-1.9-0.9-3.4-0.7-0.5 0-0.9 0.1-1.4 0.3l0 0c-0.5 0.2-1 0.5-1.5 0.8-0.6 0.4-1.1 0.8-1.5 1.3-0.7 0.8-1.4 1.7-1.7 3-0.3 1-0.3 2.2 0.1 3.3-0.5-0.1-1.2 0.3-0.6 2.4 0.4 1.6 0.9 2 1.2 2.1 0.2 1.2 0.6 2.5 1.4 3.6-0.1 0.5-0.2 1.1-0.5 1.6C45.4 88.5 42.5 89.9 39.2 90.8zM96.6 90.8c-3.4-0.8-6.1-2.1-6.1-2.1-0.3-0.5-0.5-1.3-0.6-1.8 0.8-1 1.1-2.2 1.3-3.3 0.3 0.2 0.9 0.1 1.4-2 0.5-1.7 0.2-2.3-0.2-2.4h0c1.3-6.5-1.7-6.7-1.7-6.7s-0.5-0.9-1.7-1.6c-0.8-0.5-1.9-0.9-3.4-0.7-0.5 0-0.9 0.1-1.4 0.3h0l0 0c-0.5 0.2-1.1 0.5-1.5 0.8-0.6 0.4-1.1 0.8-1.5 1.3-0.7 0.8-1.4 1.7-1.7 3-0.3 1-0.3 2.2 0.1 3.3-0.5-0.1-1.2 0.3-0.6 2.4 0.4 1.6 0.9 2 1.2 2.1 0.2 1.2 0.6 2.5 1.4 3.6-0.1 0.5-0.2 1.1-0.5 1.6 0 0-2.9 1.4-6.2 2.2-0.3 0.1-0.6 0.2-0.9 0.3 2.5 3.8 6.8 6.2 11.7 6.2 4.9 0 9.2-2.5 11.7-6.2C97.3 91 97 90.8 96.6 90.8zM50 31.7c-8 0-14.5-6.5-14.5-14.5S42 2.6 50 2.6c8 0 14.5 6.5 14.5 14.5S58 31.7 50 31.7zM48.4 24.9c1.8 0.6 3.5 0.6 5.3 0.1 0.5-0.1 0.9-0.3 1.4-0.5 0.4-0.2 0.5-0.5 0.4-0.9-0.2-0.5-0.4-0.9-0.6-1.3-0.2-0.4-0.4-0.5-0.8-0.4-0.5 0.1-1.1 0.3-1.6 0.4-1.1 0.2-2.1 0.2-3.2-0.1-1.3-0.4-2-1.4-2.4-2.6h3.6c0.3 0 0.5-0.2 0.5-0.5v-1.1c0-0.3-0.2-0.5-0.5-0.5h-3.9c0-0.3 0-0.6 0-0.9h3.9c0.3 0 0.5-0.2 0.5-0.5v-1.1c0-0.3-0.2-0.5-0.5-0.5h-3.4c0 0 0 0 0 0 0.4-0.9 1-1.7 2-2.1 1.1-0.5 2.3-0.4 3.5-0.2 0.6 0.1 1.1 0.3 1.7 0.4 0.4 0.1 0.6 0 0.8-0.4 0.2-0.4 0.4-0.9 0.6-1.3 0.2-0.4 0.1-0.7-0.3-0.9-0.1-0.1-0.2-0.1-0.3-0.1-1.6-0.6-3.3-0.9-5.1-0.6-1.2 0.2-2.4 0.6-3.4 1.4-1.3 1-2.1 2.2-2.5 3.8l-0.1 0.2H42c-0.3 0-0.5 0.2-0.5 0.5V16c0 0.3 0.2 0.5 0.5 0.5h1.4c0 0.3 0 0.6 0 0.9H42c-0.3 0-0.5 0.2-0.5 0.5v1.1c0 0.3 0.2 0.5 0.5 0.5h1.7c0.1 0.4 0.2 0.8 0.4 1.2C44.9 22.8 46.3 24.3 48.4 24.9z" fill="#ffffff" data-fill-palette-color="accent"></path></svg></g></svg></g><g></g></svg></g><defs></defs></svg><rect width="395.52" height="223.85306222307327" fill="none" stroke="none" visibility="hidden"></rect></g></svg></g></svg>